<?xml version="1.0" encoding="UTF-8" standalone="no" ?>
<svg xmlns="http://www.w3.org/2000/svg" xmlns:xlink="http://www.w3.org/1999/xlink" version="1.1" width="153" height="154" viewBox="0 0 153 154" xml:space="preserve">
  <desc>
    Created with Fabric.js 3.6.6
  </desc>
  <defs>
    <linearGradient id="red-gradient" gradientUnits="userSpaceOnUse" x1="0" y1="0" x2="0" y2="1">
      <stop offset="9.496%" style="stop-color:rgba(229, 13, 13, 1);"/>
      <stop offset="31.751%" style="stop-color:rgba(243, 235, 235, 1);"/>
      <stop offset="84.174%" style="stop-color:rgba(255, 0, 0, 1);"/>
    </linearGradient>
    <linearGradient id="yellow-gradient" gradientUnits="userSpaceOnUse" x1="0" y1="0" x2="0" y2="1">
      <stop offset="9.496%" style="stop-color:rgba(255, 255, 0, 1);"/>
      <stop offset="31.751%" style="stop-color:rgba(243, 235, 235, 1);"/>
      <stop offset="84.174%" style="stop-color:rgba(255, 255, 0, 1);"/>
    </linearGradient>
    <linearGradient id="blue-gradient" gradientUnits="userSpaceOnUse" x1="0" y1="0" x2="0" y2="1">
      <stop offset="9.496%" style="stop-color:rgba(0, 0, 255, 1);"/>
      <stop offset="31.751%" style="stop-color:rgba(243, 235, 235, 1);"/>
      <stop offset="84.174%" style="stop-color:rgba(0, 0, 255, 1);"/>
    </linearGradient>
    <linearGradient id="green-gradient" gradientUnits="userSpaceOnUse" x1="0" y1="0" x2="0" y2="1">
      <stop offset="9.496%" style="stop-color:rgba(0, 255, 0, 1);"/>
      <stop offset="31.751%" style="stop-color:rgba(243, 235, 235, 1);"/>
      <stop offset="84.174%" style="stop-color:rgba(0, 255, 0, 1);"/>
    </linearGradient>
  </defs>
  <g transform="matrix(1 0 0 1 77.38 77.12)">
    <g style="">
      <g transform="matrix(0.23 0 0 0.24 -64.04 -26.48)">
        <polygon style="stroke: rgb(0,0,0); stroke-width: 4; stroke-dasharray: none; stroke-linecap: butt; stroke-dashoffset: 0; stroke-linejoin: round; stroke-miterlimit: 4; fill: rgb(52,52,48); fill-rule: nonzero; opacity: 1;" points="-50,-50 -50,50 50,50 50,-50 "/>
      </g>
      <g transform="matrix(0.23 0 0 0.24 64.05 -26.83)">
        <polygon style="stroke: rgb(0,0,0); stroke-width: 4; stroke-dasharray: none; stroke-linecap: butt; stroke-dashoffset: 0; stroke-linejoin: miter; stroke-miterlimit: 4; fill: rgb(52,52,48); fill-rule: nonzero; opacity: 1;" points="-50,-50 -50,50 50,50 50,-50 "/>
      </g>
      <g transform="matrix(1 0 0 1 0.73 11.96)">
        <path class="bucket-fill" style="stroke: rgb(0,0,0); stroke-width: 3; stroke-dasharray: none; stroke-linecap: butt; stroke-dashoffset: 0; stroke-linejoin: round; stroke-miterlimit: 4; fill: url(#red-gradient); fill-rule: nonzero; opacity: 1;" transform=" translate(-173.02, -267.35)" d="M 130.77550771285075 330.204081632653 L 122.20407914142218 322.85714285714283 L 109.95918118223851 206.93877551020407 L 110.77550771285075 204.48979591836732 L 236.08163016183033 204.0816326530612 L 222.61224240672829 323.2653061224489 L 215.26530363121807 330.61224489795916 L 130.77550771285075 330.204081632653" stroke-linecap="round"/>
      </g>
      <g transform="matrix(1.32 0 0 0.24 0 -63.22)">
        <polygon class="bucket-fill" style="stroke: rgb(0,0,0); stroke-width: 3; stroke-dasharray: none; stroke-linecap: butt; stroke-dashoffset: 0; stroke-linejoin: round; stroke-miterlimit: 4; fill: url(#red-gradient); fill-rule: nonzero; opacity: 1;" vector-effect="non-scaling-stroke" points="-50,-50 -50,50 50,50 50,-50 "/>
      </g>
      <g transform="matrix(1 0 0 1 -41.31 75.38)">
        <line style="stroke: rgb(0,0,0); stroke-width: 2; stroke-dasharray: none; stroke-linecap: butt; stroke-dashoffset: 0; stroke-linejoin: miter; stroke-miterlimit: 4; fill: rgb(0,0,0); fill-rule: nonzero; opacity: 1;" x1="0" y1="0" x2="0" y2="0"/>
      </g>
    </g>
  </g>
</svg>