<?xml version="1.0" encoding="UTF-8" standalone="no" ?>
<!DOCTYPE svg PUBLIC "-//W3C//DTD SVG 1.1//EN" "http://www.w3.org/Graphics/SVG/1.1/DTD/svg11.dtd">
<svg xmlns="http://www.w3.org/2000/svg" xmlns:xlink="http://www.w3.org/1999/xlink" version="1.1" width="153" height="154" viewBox="0 0 153 154" xml:space="preserve">
  <desc>
    Created with Fabric.js 3.6.6
  </desc>
  <defs/>
  <g transform="matrix(0.23 0 0 0.24 11.33 50.64)">
    <polygon style="stroke: rgb(0,0,0); stroke-width: 4; stroke-dasharray: none; stroke-linecap: butt; stroke-dashoffset: 0; stroke-linejoin: round; stroke-miterlimit: 4; fill: rgb(52,52,48); fill-rule: nonzero; opacity: 1;" points="-50,-50 -50,50 50,50 50,-50 "/>
  </g>
  <g transform="matrix(0.23 0 0 0.24 139.42 50.29)">
    <polygon style="stroke: rgb(0,0,0); stroke-width: 4; stroke-dasharray: none; stroke-linecap: butt; stroke-dashoffset: 0; stroke-linejoin: miter; stroke-miterlimit: 4; fill: rgb(52,52,48); fill-rule: nonzero; opacity: 1;" points="-50,-50 -50,50 50,50 50,-50 "/>
  </g>
  <g transform="matrix(1 0 0 1 76.11 89.07)">
    <linearGradient id="SVGID_SVGID_11_10" gradientUnits="userSpaceOnUse" gradientTransform="matrix(1 0 0 1 109.96 204.08)" x1="0" y1="63.265306122448976" x2="126.12244897959182" y2="63.265306122448976">
      <stop offset="8.457%" style="stop-color:rgb(122,229,13);stop-opacity: 1"/>
      <stop offset="31.751%" style="stop-color:rgb(243,235,235);stop-opacity: 1"/>
      <stop offset="84.174%" style="stop-color:rgb(20,255,0);stop-opacity: 1"/>
    </linearGradient>
    <path style="stroke: rgb(0,0,0); stroke-width: 6; stroke-dasharray: none; stroke-linecap: butt; stroke-dashoffset: 0; stroke-linejoin: round; stroke-miterlimit: 4; fill: url(#SVGID_SVGID_11_10); fill-rule: nonzero; opacity: 1;" transform=" translate(-173.02, -267.35)" d="M 130.77550771285075 330.204081632653 L 122.20407914142218 322.85714285714283 L 109.95918118223851 206.93877551020407 L 110.77550771285075 204.48979591836732 L 236.08163016183033 204.0816326530612 L 222.61224240672829 323.2653061224489 L 215.26530363121807 330.61224489795916 L 130.77550771285075 330.204081632653" stroke-linecap="round"/>
  </g>
  <g transform="matrix(1.32 0 0 0.24 75.37 13.9)">
    <linearGradient id="SVGID_SVGID_17_11" gradientUnits="userSpaceOnUse" gradientTransform="matrix(1 0 0 1 -50 -50)" x1="0" y1="50" x2="100" y2="50">
      <stop offset="2.6%" style="stop-color:rgb(122,229,13);stop-opacity: 1"/>
      <stop offset="32.74%" style="stop-color:rgb(243,235,235);stop-opacity: 1"/>
      <stop offset="90.603%" style="stop-color:rgb(20,255,0);stop-opacity: 1"/>
    </linearGradient>
    <polygon style="stroke: rgb(0,0,0); stroke-width: 2; stroke-dasharray: none; stroke-linecap: butt; stroke-dashoffset: 0; stroke-linejoin: round; stroke-miterlimit: 4; fill: url(#SVGID_SVGID_17_11); fill-rule: nonzero; opacity: 1;" vector-effect="non-scaling-stroke" points="-50,-50 -50,50 50,50 50,-50 "/>
  </g>
</svg>
