<?xml version="1.0" encoding="UTF-8" standalone="no" ?>
<!DOCTYPE svg PUBLIC "-//W3C//DTD SVG 1.1//EN" "http://www.w3.org/Graphics/SVG/1.1/DTD/svg11.dtd">
<svg xmlns="http://www.w3.org/2000/svg" xmlns:xlink="http://www.w3.org/1999/xlink" version="1.1" width="153" height="154" viewBox="0 0 153 154" xml:space="preserve">
  <desc>
    Created with Fabric.js 3.6.6
  </desc>
  <defs/>
  <g transform="matrix(1 0 0 1 76.11 89.07)">
    <linearGradient id="SVGID_SVGID_51_5" gradientUnits="userSpaceOnUse" gradientTransform="matrix(1 0 0 1 109.96 204.08)" x1="0" y1="63.265306122448976" x2="126.12244897959182" y2="63.265306122448976">
      <stop offset="0%" style="stop-color:rgb(255,255,255);stop-opacity: 1"/>
      <stop offset="74.043%" style="stop-color:rgb(255,255,255);stop-opacity: 1"/>
    </linearGradient>
    <path style="stroke: rgb(0,0,0); stroke-width: 3; stroke-dasharray: none; stroke-linecap: butt; stroke-dashoffset: 0; stroke-linejoin: round; stroke-miterlimit: 4; fill: url(#SVGID_SVGID_51_5); fill-rule: nonzero; opacity: 0.2;" transform=" translate(-173.02, -267.35)" d="M 130.77550771285075 330.204081632653 L 122.20407914142218 322.85714285714283 L 109.95918118223851 206.93877551020407 L 110.77550771285075 204.48979591836732 L 236.08163016183033 204.0816326530612 L 222.61224240672829 323.2653061224489 L 215.26530363121807 330.61224489795916 L 130.77550771285075 330.204081632653" stroke-linecap="round"/>
  </g>
  <g transform="matrix(1.32 0 0 0.24 75.38 13.9)">
    <linearGradient id="SVGID_SVGID_52_6" gradientUnits="userSpaceOnUse" gradientTransform="matrix(1 0 0 1 -50 -50)" x1="0" y1="50" x2="100" y2="50">
      <stop offset="42.483%" style="stop-color:rgb(255,255,255);stop-opacity: 1"/>
      <stop offset="100%" style="stop-color:rgb(255,255,255);stop-opacity: 1"/>
    </linearGradient>
    <polygon style="stroke: rgb(0,0,0); stroke-width: 1; stroke-dasharray: none; stroke-linecap: butt; stroke-dashoffset: 0; stroke-linejoin: round; stroke-miterlimit: 4; fill: url(#SVGID_SVGID_52_6); fill-rule: nonzero; opacity: 0.2;" vector-effect="non-scaling-stroke" points="-50,-50 -50,50 50,50 50,-50 "/>
  </g>
  <g transform="matrix(0.93 0 0 0.98 141.95 49.9)">
    <path style="stroke: rgb(0,0,0); stroke-width: 3; stroke-dasharray: none; stroke-linecap: butt; stroke-dashoffset: 0; stroke-linejoin: miter; stroke-miterlimit: 4; fill: none; fill-rule: nonzero; opacity: 0.2;" transform=" translate(-142.81, -49.93)" d="M 138.9847494553377 37.76727069452899 L 151.30646255526275 37.76727069452899 L 151.30646255526275 62.088774603159 L 134.32109622966414 62.088774603159 L 138.9847494553377 37.76727069452899" stroke-linecap="round"/>
  </g>
  <g transform="matrix(-0.93 0 0 0.98 9.11 50.09)">
    <path style="stroke: rgb(0,0,0); stroke-width: 1; stroke-dasharray: none; stroke-linecap: butt; stroke-dashoffset: 0; stroke-linejoin: miter; stroke-miterlimit: 4; fill: none; fill-rule: nonzero; opacity: 0.2;" vector-effect="non-scaling-stroke" transform=" translate(-142.81, -49.93)" d="M 138.9847494553377 37.76727069452899 L 151.30646255526275 37.76727069452899 L 151.30646255526275 62.088774603159 L 134.32109622966414 62.088774603159 L 138.9847494553377 37.76727069452899" stroke-linecap="round"/>
  </g>
</svg>
